<?xml version="1.0" encoding="utf-8"?>
<!-- Generator: Adobe Illustrator 26.0.1, SVG Export Plug-In . SVG Version: 6.00 Build 0)  -->
<svg version="1.1" id="Layer_1" xmlns="http://www.w3.org/2000/svg" xmlns:xlink="http://www.w3.org/1999/xlink" x="0px" y="0px"
	 viewBox="0 0 512 512" style="enable-background:new 0 0 512 512;" xml:space="preserve">
<style type="text/css">
	.st0{fill:#2B3137;}
</style>
<path class="st0" d="M142.8,194.4c-0.3,0.4-0.5,1-0.8,1.5c0,0-0.9,1.6-1.2,2c-0.4,0.7-0.8,1.4-1.1,2v5.7h-0.1c0,1.3,0,5-0.1,10.9
	c-1.2,69.9,1.4,86.5,3,90.2c4.4-0.1,8.7-0.7,12.6-1.7c3.9-1.2,7.5-2.7,10.2-4.5c2.7-1.8,5.1-4.2,7.1-6.9c2.2-3.1,3.9-6.1,5.1-8.9
	c1.3-3.3,2.3-6.9,2.9-10.7c0.8-4.2,1.3-8.1,1.6-11.8c0.3-4.1,0.4-8.3,0.4-12.6v-8.6c0-16-3.1-27.9-9.4-35.3
	C167.5,199,157.3,195.1,142.8,194.4z"/>
<path class="st0" d="M256,0C114.6,0,0,114.6,0,256s114.6,256,256,256s256-114.6,256-256S397.4,0,256,0z M266.4,288.5
	c-3.8,12.1-9,22.4-15.8,31.5c-6.6,8.7-14.4,16.5-23.4,23c-9.1,6.5-18.9,11.4-29.1,14.5c-10.4,3.2-21.3,4.8-32.2,4.8h-4.4
	c-4,0-10-0.1-17.9-0.3c-7.8-0.3-13.5-0.3-17.7-0.3c-24.1,0-44.5,0.4-62.7,1.2l-2.3,0.1l-1.1-2.1c-2.5-4.9-3.7-9.5-3.7-13.7V147.8
	h1.5c0.4-0.7,1.2-1.4,2.1-2c1.5-1.1,3.5-1.8,6.4-2.3c2.8-0.5,4.9-0.9,7-1.1c2.4-0.3,5.1-0.4,8.3-0.5c3.1-0.1,5.7-0.1,7.7-0.1
	s4.4,0,7,0.1c1.9,0,3.2,0.1,4,0.1c0.3,0,0.4,0,0.5,0h15.5c2.9,0,7.2-0.1,12.7-0.3c5.5-0.3,9.5-0.3,12.2-0.3
	c44.7,0,77.2,7.9,96.7,23.5l0.1,0.1l5,4.4c1.7,1.5,3.6,3.6,5.7,6.1c1.9,2.3,4.3,6,7.4,11c2.6,4.3,5,9.2,7.8,15.9
	c2.2,5.4,4,12.1,5.8,21.2c1.6,8.3,2.5,17,2.5,25.9C272.1,263.7,270.2,276.5,266.4,288.5z M460.2,354.7c-1.2,3-4.5,4.9-19.4,6.1
	c-10.4,0.8-25.4,1.2-45.7,1.2h-97.4v0.1l-1.1-1.6c-2.7-4-4-9.7-4-17.5v-39.3c0-11.6,0.1-28.3,0.3-51.2c0.3-22.6,0.3-39.8,0.3-51.2
	c0-1.2,0-5.6-0.4-14l-0.1-4.9c-0.1-5.3-0.3-9.4-0.3-12.8c0-21.6,3.3-26.5,6.5-28.3l1.3-0.8l1.4,0.4c0.4,0.1,1.8,0.1,2.9,0.1h4.4
	c2.8,0,7.6-0.1,14.1-0.3c6.5-0.3,11.7-0.3,15.1-0.3c13.3,0,24.1,0.5,32.2,1.6c9.6,1.2,15.1,3.8,16.5,8.3l0.2,0.6l-1.7,139.9
	c6.3-0.3,10.4-0.4,13.3-0.4c0.6,0,1.2,0,1.7,0c2,0,4.9,0.1,8.9,0.3c2.1,0.1,4.6,0.2,7.5,0.3c6.7,0.3,13.8,0.4,22.6,0.4
	c6.1,0,11,0.4,14.2,1.1c6.5,1.6,7.1,6,7.1,7.8V354L460.2,354.7z"/>
</svg>
