<?xml version="1.0" encoding="utf-8"?>
<!-- Generator: Adobe Illustrator 26.0.1, SVG Export Plug-In . SVG Version: 6.00 Build 0)  -->
<svg version="1.1" id="Layer_1" xmlns="http://www.w3.org/2000/svg" xmlns:xlink="http://www.w3.org/1999/xlink" x="0px" y="0px"
	 viewBox="0 0 512 512" style="enable-background:new 0 0 512 512;" xml:space="preserve">
<style type="text/css">
	.st0{enable-background:new    ;}
	.st1{fill:#2B3137;}
	.st2{fill:#A3BACC;}
</style>
<g class="st0">
	<g>
		<path class="st1" d="M44.2,374.3c-2.8-5.5-4.2-10.7-4.2-15.4V135.1h1.7c0.5-0.8,1.3-1.6,2.4-2.3c1.7-1.2,3.9-2,7.2-2.6
			c3.1-0.6,5.5-1,7.9-1.2c2.7-0.3,5.7-0.5,9.3-0.6c3.5-0.1,6.4-0.1,8.7-0.1c2.3,0,4.9,0,7.9,0.1c2.1,0,3.6,0.1,4.5,0.1
			c0.3,0,0.5,0,0.6,0h17.4c3.3,0,8.1-0.1,14.3-0.3c6.2-0.3,10.7-0.3,13.7-0.3c50.2,0,86.7,8.9,108.5,26.4l0.1,0.1l5.6,4.9
			c1.9,1.7,4,4,6.4,6.9c2.1,2.6,4.8,6.7,8.3,12.4c2.9,4.8,5.6,10.3,8.8,17.8c2.5,6.1,4.5,13.6,6.5,23.8c1.8,9.3,2.8,19.1,2.8,29.1
			c0,15.9-2.1,30.2-6.4,43.7c-4.3,13.6-10.1,25.1-17.7,35.4c-7.4,9.8-16.2,18.5-26.3,25.8c-10.2,7.3-21.2,12.8-32.7,16.3
			c-11.7,3.6-23.9,5.4-36.2,5.4h-4.9c-4.5,0-11.2-0.1-20.1-0.3c-8.8-0.3-15.2-0.3-19.9-0.3c-27,0-50,0.4-70.4,1.3l-2.6,0.1
			L44.2,374.3z M134,200c0,1.5,0,5.6-0.1,12.2c-1.4,78.5,1.6,97.1,3.4,101.3c4.9-0.1,9.8-0.8,14.2-1.9c4.4-1.3,8.4-3,11.4-5
			c3-2,5.7-4.7,8-7.8c2.5-3.5,4.4-6.9,5.7-10c1.5-3.7,2.6-7.7,3.3-12c0.9-4.7,1.5-9.1,1.8-13.2c0.3-4.6,0.5-9.3,0.5-14.1v-9.6
			c0-18-3.5-31.3-10.5-39.6c-6.5-7.7-18-12.1-34.2-12.9c-0.3,0.5-0.6,1.1-0.9,1.7c0,0-1,1.8-1.3,2.3c-0.5,0.8-0.9,1.6-1.2,2.2V200z"
			/>
		<path class="st2" d="M135.5,131.9c49.4,0,84.8,8.5,106,25.5l5.6,4.9c1.8,1.6,3.8,3.8,5.9,6.4c2.1,2.6,4.8,6.7,8,12
			c3.2,5.3,5.9,11.1,8.5,17.3c2.5,6.2,4.5,13.9,6.3,23c1.8,9.1,2.7,18.6,2.7,28.3c0,15.2-2,29.3-6.2,42.5
			c-4.2,13.2-9.9,24.5-17.1,34.2c-7.2,9.6-15.7,17.9-25.4,24.9s-20.2,12.3-31.5,15.7c-11.2,3.4-23,5.2-35,5.2h-4.9
			c-4.4,0-11.1-0.1-20-0.3c-8.8-0.3-15.4-0.3-20-0.3c-26,0-49.5,0.4-70.6,1.3c-2.5-4.9-3.8-9.5-3.8-13.6V139.1h0.4
			c0-1.1,0.6-2.1,1.9-3s3.2-1.5,5.7-2s4.9-0.9,7.5-1.1c2.5-0.3,5.4-0.5,9-0.6c3.4-0.1,6.3-0.1,8.6-0.1c2.3,0,4.9,0,7.8,0.1
			c2.9,0,4.7,0.1,5.2,0.1h17.4c3.4,0,8.2-0.1,14.4-0.3C128.1,131.9,132.6,131.9,135.5,131.9 M135.7,317.5c6.2,0,11.9-0.8,16.8-2.1
			c4.9-1.4,9.2-3.3,12.6-5.6c3.4-2.3,6.4-5.2,9-8.7c2.5-3.5,4.7-7.2,6.2-10.9c1.5-3.8,2.7-8,3.5-12.9c0.9-4.8,1.5-9.4,1.8-13.6
			c0.3-4.2,0.5-9.1,0.5-14.4v-9.6c0-19.1-3.8-33.1-11.4-42.2c-7.6-9.1-20.7-13.9-39.7-14.4c-0.5,1.1-1.4,2.7-2.5,4.7s-2,3.5-2.5,4.7
			v7.5c0,1.5,0,5.6-0.1,12.1C128.7,281.6,130.6,316.8,135.7,317.5 M135.5,123.9c-3,0-7.6,0-13.9,0.3c-6.1,0.2-10.8,0.3-14.1,0.3
			H90.1c-0.1,0-0.3,0-0.5,0c-0.9,0-2.4-0.1-4.6-0.1c-3-0.1-5.6-0.1-7.9-0.1c-2.4,0-5.3,0-8.8,0.1c-3.7,0.1-6.8,0.3-9.5,0.6
			c-3.2,0.3-6.1,0.8-8.3,1.2c-3.9,0.8-6.5,1.8-8.7,3.3c-0.7,0.5-1.4,1-1.9,1.6H36v8v219.8c0,5.4,1.6,11.2,4.7,17.2l2.3,4.6l5.1-0.2
			c20.4-0.9,43.4-1.3,70.3-1.3c4.7,0,11.1,0,19.7,0.3l0,0l0,0c8.9,0.2,15.7,0.3,20.2,0.3h4.9c12.6,0,25.2-1.9,37.3-5.5
			c11.9-3.6,23.3-9.3,33.9-16.9c10.4-7.5,19.5-16.4,27.1-26.6c7.9-10.6,13.9-22.6,18.3-36.6c4.4-13.9,6.6-28.6,6.6-44.9
			c0-10.2-1-20.3-2.9-29.9c-2.1-10.4-4.2-18.1-6.7-24.4l0-0.1l0-0.1c-3.2-7.7-6-13.3-9-18.3c-3.6-5.9-6.4-10.1-8.6-12.9
			c-2.5-3.1-4.7-5.5-6.8-7.4l0,0l0,0l-5.6-4.9l-0.1-0.1l-0.1-0.1c-11.5-9.2-26.8-16.2-45.6-20.7
			C182.7,126.1,160.7,123.9,135.5,123.9L135.5,123.9z M138,194.4c0.2-0.4,0.4-0.8,0.7-1.2c0.3-0.5,0.5-1,0.8-1.5l0.2-0.3
			c13.8,1,23.5,4.8,28.9,11.3c6.3,7.6,9.5,20.1,9.5,37.1v9.6c0,4.7-0.2,9.4-0.5,13.8c-0.3,4-0.9,8.3-1.7,12.7l0,0.1l0,0.1
			c-0.7,4-1.7,7.7-3,11.2c-1.1,2.8-2.9,5.9-5.2,9.2c-2,2.7-4.4,5-7,6.8c-2.6,1.8-6.2,3.3-10.2,4.5c-3.1,0.8-6.5,1.4-10,1.6
			c-0.7-3.5-1.7-10.7-2.3-25.6c-0.7-17-0.8-41.1-0.2-71.5c0.1-6.6,0.1-10.7,0.1-12.2V194.4L138,194.4z"/>
	</g>
	<g>
		<path class="st1" d="M302,375.6l-1.2-1.8c-3-4.5-4.5-10.9-4.5-19.6v-44.1c0-13,0.1-31.8,0.3-57.5c0.3-25.4,0.3-44.7,0.3-57.5
			c0-1.3,0-6.3-0.5-15.7l-0.1-5.5c-0.1-5.9-0.3-10.5-0.3-14.4c0-24.3,3.7-29.7,7.3-31.8l1.5-0.9l1.6,0.5c0.5,0.1,2,0.1,3.2,0.1h4.9
			c3.1,0,8.5-0.1,15.8-0.3c7.3-0.3,13.1-0.3,16.9-0.3c14.9,0,27.1,0.6,36.1,1.8c10.8,1.3,16.9,4.3,18.5,9.3l0.2,0.7l-1.9,157.1
			c7.1-0.3,11.7-0.5,14.9-0.5c0.7,0,1.4,0,1.9,0c2.2,0,5.5,0.1,10,0.3c2.4,0.1,5.2,0.2,8.4,0.3c7.5,0.3,15.5,0.5,25.4,0.5
			c6.8,0,12.3,0.4,15.9,1.2c7.3,1.8,8,6.7,8,8.7v60.4l-0.2,0.7c-1.3,3.4-5.1,5.5-21.8,6.8c-11.7,0.9-28.5,1.4-51.3,1.4H302z"/>
		<path class="st2" d="M347.2,130.9c14.7,0,26.7,0.6,35.6,1.8c9.1,1.1,14.2,3.4,15.3,6.6l-1.9,160.5h3.4c6.9-0.3,12.1-0.5,15.5-0.5
			c0.7,0,1.3,0,1.9,0c3.3,0,9.4,0.3,18.3,0.6c8.8,0.4,17.4,0.5,25.5,0.5c6.7,0,11.8,0.4,15,1.1c3.3,0.8,4.9,2.4,4.9,4.8V366
			c-1.4,3.8-24.5,5.6-69.4,5.6H304.1c-2.5-3.7-3.8-9.5-3.8-17.4v-44.1c0-13,0.1-32.1,0.3-57.5c0.3-25.4,0.3-44.6,0.3-57.5
			c0-2.4-0.1-7.7-0.5-15.9c-0.2-8.3-0.4-14.7-0.4-19.7c0-16.9,1.8-26.3,5.3-28.3c1,0.3,2.5,0.3,4.3,0.3h4.9c3.2,0,8.5-0.1,15.9-0.3
			C337.7,130.9,343.4,130.9,347.2,130.9 M304.3,122.6l-3,1.7c-6.7,3.8-9.3,13.7-9.3,35.2c0,4,0.1,8.6,0.3,14.5
			c0,1.7,0.1,3.5,0.1,5.4l0,0.1l0,0.1c0.5,9.3,0.5,14.2,0.5,15.5c0,12.8,0,32.1-0.3,57.4c-0.2,25.7-0.3,44.5-0.3,57.6v44.1
			c0,9.6,1.7,16.7,5.2,21.9l2.4,3.5h4.2h107.2c23,0,39.9-0.5,51.7-1.4c15.2-1.2,22.9-2.9,25.3-9.4l0.5-1.3V366v-59.7
			c0-2.3-0.8-10.1-11-12.6l-0.1,0l-0.1,0c-3.9-0.9-9.5-1.3-16.7-1.3c-9.8,0-17.8-0.2-25.1-0.5l0,0l0,0c-3.1-0.1-5.9-0.2-8.4-0.3
			c-4.5-0.2-7.8-0.3-10.1-0.3c-0.6,0-1.3,0-2,0c-2.5,0-6,0.1-10.8,0.3l1.8-152.2l0-1.4l-0.5-1.3c-3-8.7-13.9-11-21.9-11.9
			c-9.2-1.2-21.5-1.9-36.6-1.9c-3.8,0-9.6,0-17.1,0.3c-7.3,0.2-12.5,0.3-15.6,0.3h-4.9c-0.8,0-1.8,0-2.3,0L304.3,122.6L304.3,122.6z
			"/>
	</g>
</g>
</svg>
